<svg id="Layer_1" height="512" viewBox="0 0 512 512" width="512" xmlns="http://www.w3.org/2000/svg" data-name="Layer 1"><path d="m79.072 293.52a19.193 19.193 0 0 0 -1.148-6.56l20.176-19.76h49.058v16.11c0 .2 0 .392.008.587l-38.315 12.347a7.952 7.952 0 0 0 -4.519 3.695l-26.427 47.032c-.529-.043-1.064-.067-1.6-.067a19.242 19.242 0 1 0 15.536 7.889l24.89-44.333 36.422-11.737a22.883 22.883 0 0 0 16.934 7.511h51.128v-67.649a33.969 33.969 0 0 1 10.807-24.848 27.837 27.837 0 1 1 46.536.046 33.958 33.958 0 0 1 10.759 24.8v61.788q1.017-.06 2.051-.061a33.843 33.843 0 0 1 19.156 5.922h30a22.89 22.89 0 0 0 17.244-7.861l37.508 12.087 24.891 44.333a19.241 19.241 0 1 0 15.533-7.891c-.54 0-1.075.024-1.6.067l-26.424-47.035a7.952 7.952 0 0 0 -4.519-3.695l-39.707-12.8v-.138-16.099h50.45l20.173 19.763a19.232 19.232 0 1 0 11.165-11.395l-22.1-21.648a7.98 7.98 0 0 0 -6.009-2.72h-53.682v-29.237h71.219a19.242 19.242 0 1 0 0-16h-71.219v-29.235h53.689a7.979 7.979 0 0 0 6.009-2.719l22.1-21.648a19.226 19.226 0 1 0 -11.165-11.4l-20.18 19.767h-50.453v-14.328l40.017-14.805a7.958 7.958 0 0 0 4.219-3.595l26.417-47.046q.793.066 1.6.067a19.242 19.242 0 1 0 -15.536-7.889l-24.977 44.486-36.237 13.406a22.933 22.933 0 0 0 -18.43-9.332h-11.382v-38.856a73.837 73.837 0 0 0 -147.674 0v38.856h-11.381a22.921 22.921 0 0 0 -18.124 8.928l-35.145-13-24.977-44.488a19.242 19.242 0 1 0 -15.537 7.889q.81 0 1.6-.067l26.418 47.046a7.95 7.95 0 0 0 4.218 3.595l38.619 14.288v14.85h-49.055l-20.176-19.768a19.227 19.227 0 1 0 -11.165 11.4l22.1 21.648a7.979 7.979 0 0 0 6.009 2.719h52.291v29.235h-69.825a19.241 19.241 0 1 0 0 16h69.821v29.233h-52.291a7.98 7.98 0 0 0 -6.009 2.72l-22.1 21.648a19.244 19.244 0 1 0 12.317 17.952zm286.71 178.941h-132.682c-6.785-33.833-31.055-54.383-59.46-117.894-11.137-24.9 14.5-39.442 31.266-18.052l32.3 41.222v-139.152a18.052 18.052 0 1 1 36.1 0v95.779a18.052 18.052 0 0 1 36.1 0v16.56a18.052 18.052 0 1 1 36.1 0v16.052a18.052 18.052 0 1 1 36.1 0v24.508c0 19.188-2.213 55.266-15.839 80.977zm-131.436 16v14.539h126.567v-14.539zm-17.787-366.769v-38.856a38.743 38.743 0 0 1 77.485 0v38.856z" fill-rule="evenodd"/></svg>