<svg id="Layer_1" enable-background="new 0 0 32 32" height="512" viewBox="0 0 32 32" width="512" xmlns="http://www.w3.org/2000/svg"><path d="m15.5499878 27.6699829h-3.9599609c.9499511 1.4099732 2.5699462 2.3300171 4.3899536 2.3300171.7399902 0 1.4400024-.1500244 2.0800171-.4200439-.9500122-.4799805-1.7999878-1.1299439-2.5100098-1.9099732z"/><path d="m13.4899902 23.6699829c-.1300049-.5900269-.2000122-1.210022-.2000122-1.8400269 0-4.789978 3.9000244-8.6799927 8.6900024-8.6799927 1 0 1.9700317.1700439 2.8699951.4900513-.2599486-4.290039-3.5899657-7.7700195-7.8499755-8.25v-1.0194091c0-.5522461-.4477539-1-1-1s-1 .4477539-1 1v1.0194092c-4.4199829.4799805-7.8699951 4.2399902-7.8699951 8.7999878v9.4799805h-.8699951c-.5499878 0-1 .4500122-1 1s.4500122 1 1 1h7.9299927c-.3099976-.630005-.5499879-1.2999879-.7000123-2.0000001z"/><path d="m21.9799805 15.1499634c-3.6900024 0-6.6900024 2.9900513-6.6900024 6.6799927-.0228071 3.6104946 2.9855251 6.7006779 6.6900024 6.6800537 3.6799927 0 6.6799927-2.9900513 6.6799927-6.6800537-.0000001-3.6899415-3.0000001-6.6799927-6.6799927-6.6799927zm-1 4.7200317c0-.5599976.4400024-1 1-1 .5500488 0 1 .4400024 1 1v.9599609h.8800049c.5499878 0 1 .4500122 1 1 0 .5500488-.4500122 1-1 1h-1.8800049c-.5599976 0-1-.4499512-1-1z"/><path d="m29.0566406 9.3618164c-.9101562-2.8964844-2.8037109-5.4482422-5.3320312-7.1860352-.453125-.3110352-1.0761719-.1972656-1.390625.2578125-.3125.4550781-.1972656 1.0776367.2578125 1.390625 2.1611328 1.4853516 3.7792969 3.6650391 4.5566406 6.137207.1347656.4272461.5283203.7006836.9541016.7006836.0986328 0 .2001953-.0151367.2998047-.0463867.5273437-.1655273.8193359-.7270507.6542968-1.2539062z"/><path d="m9.3852539 3.8359375c.4560547-.3115234.5732422-.9335938.2617188-1.3896484-.3110352-.4560547-.9335938-.5727539-1.3896485-.2617188-2.5249023 1.7241211-4.4121094 4.2739258-5.3149414 7.1806641-.1635742.5273438.1308594 1.0874023.6586914 1.2514648.0986328.0307617.1982422.0454102.296875.0454102.4262695 0 .8212891-.2753906.9545898-.7041016.769043-2.4770508 2.3789063-4.6513672 4.5327149-6.1220703z"/></svg>