<svg xmlns="http://www.w3.org/2000/svg" id="Layer_1" enable-background="new 0 0 512 512" height="512" viewBox="0 0 512 512" width="512"><path clip-rule="evenodd" d="m121.873 394.302h44.006c3.855 0 7 3.144 7 7v73.28c0 3.855-3.145 7-7 7h-44.006c-3.855 0-7-3.144-7-7v-73.28c0-3.855 3.145-7 7-7zm14.22-363.886c54.27 0 98.265 43.995 98.265 98.265h-98.265zm76.437 120.093h-98.265v-98.265c-54.27 0-98.265 43.995-98.265 98.265s43.995 98.265 98.265 98.265 98.265-43.995 98.265-98.265zm254.467-24.816c-13.742 0-24.883 11.14-24.883 24.883 0 3.472.712 6.778 1.997 9.78l-72.558 64.895c-3.619-2.053-7.803-3.227-12.262-3.227-9.122 0-17.096 4.91-21.428 12.23l-61.574-12.928c-1.467-12.344-11.968-21.916-24.706-21.916-13.742 0-24.883 11.141-24.883 24.883 0 2.872.488 5.63 1.383 8.196l-70.506 54.9c-3.93-2.598-8.639-4.111-13.702-4.111-13.742 0-24.882 11.14-24.882 24.883 0 13.742 11.141 24.882 24.882 24.882 13.742 0 24.883-11.14 24.883-24.882 0-2.872-.488-5.63-1.383-8.196l70.506-54.9c3.929 2.598 8.639 4.111 13.702 4.111 9.122 0 17.096-4.91 21.428-12.23l61.574 12.928c1.467 12.344 11.968 21.916 24.706 21.916 13.742 0 24.882-11.14 24.882-24.882 0-3.472-.712-6.778-1.997-9.78l72.558-64.896c3.619 2.054 7.803 3.227 12.262 3.227 13.742 0 24.883-11.14 24.883-24.882.001-13.744-11.14-24.884-24.882-24.884zm-22.003 94.656h44.006c3.855 0 7 3.145 7 7v247.233c0 3.855-3.144 7-7 7h-44.006c-3.855 0-7-3.144-7-7v-247.233c0-3.855 3.145-7 7-7zm-107.706 115.649h44.007c3.856 0 7 3.145 7 7.001v131.584c0 3.855-3.145 7-7 7-14.669 0-29.337 0-44.007 0-3.855 0-7-3.145-7-7 0-53.456 0-78.129 0-131.584-.001-3.856 3.144-7.001 7-7.001zm-107.708-39.56h44.005c3.856 0 7 3.145 7 7v171.145c0 3.855-3.144 7-7 7h-44.005c-3.855 0-7-3.145-7-7v-171.145c.001-3.855 3.145-7 7-7z" fill-rule="evenodd" fill="#116af8"/></svg>