<svg xmlns="http://www.w3.org/2000/svg" id="Layer_1" height="512" viewBox="0 0 64 64" width="512" data-name="Layer 1"><path d="m52 16h8v32h-8z" fill="#116af8"/><path d="m44 43.816v-17.816h-8v11.587a14.02 14.02 0 0 1 8 6.229z" fill="#116af8"/><path d="m31 51.382-3.447 1.723.894 1.79 4-2a1 1 0 0 0 .553-.895v-8h-2z" fill="#116af8"/><path d="m32 63a12.018 12.018 0 0 0 8.944-4l-1.49-1.333a10.01 10.01 0 1 1 2.521-7.167h-2.975l4 5.333 4-5.333h-3.025a11.993 11.993 0 1 0 -11.975 12.5z" fill="#116af8"/><path d="m49 50h14v2h-14z" fill="#116af8"/><path d="m1 50h17v2h-17z" fill="#116af8"/><path d="m4 26h8v22h-8z" fill="#116af8"/><path d="m56 1a4 4 0 0 0 -4 4 3.952 3.952 0 0 0 .2 1.2l-9.456 5.9a3.978 3.978 0 0 0 -5.575.073l-10.339-6.083a3.935 3.935 0 0 0 .17-1.09 4 4 0 1 0 -7.7 1.522l-9.818 7.366a3.96 3.96 0 0 0 -2.482-.888 4.009 4.009 0 1 0 3.7 2.478l9.822-7.366a3.956 3.956 0 0 0 5.313-.289l10.335 6.087a3.935 3.935 0 0 0 -.17 1.09 4 4 0 0 0 8 0 3.952 3.952 0 0 0 -.2-1.2l9.456-5.9a4 4 0 1 0 2.744-6.9z" fill="#116af8"/><path d="m28 16h-8v27.816a14.02 14.02 0 0 1 8-6.229z" fill="#116af8"/></svg>