<svg id="Layer_1" enable-background="new 0 0 512 512" viewBox="0 0 512 512" xmlns="http://www.w3.org/2000/svg"><g id="Layer_2_00000089561298258135929040000011583702338947538086_"><g id="replace"><path d="m256 367.8v118.2c0 18.1-7.8 25.8-26 25.9-34 0-68 0-102.1 0v.1h-101.4c-18.3 0-26.5-8.1-26.5-26.3 0-39.4 0-78.8 0-118.3 0-18.3 8.1-26.3 26.5-26.3 67.6 0 135.1 0 202.7.1 19.4 0 26.8 7.4 26.8 26.6z"/><path d="m511.9 145.6c-.1 17.2-8.2 25.1-25.4 25.1-34.3.1-68.6.1-102.8 0v.1c-34 0-68 0-102.1 0-17.4 0-25.7-8.2-25.6-25.6 0-39.9 0-79.8 0-119.7 0-17.4 7.7-25.4 24.9-25.5h207.1c15 0 23.9 8.8 23.9 23.7.1 40.6.1 81.3 0 121.9z"/><path d="m213.1 85.4c0 11.8-9.6 21.4-21.4 21.4h-2.2c-13.2 0-26.4-.1-39.7 0-24 .2-42.5 18.2-42.8 42.1s-.1 47.5-.1 71.3c0 1.1.2 2.3.3 4.6l16.1-16.9c8.2-8.6 21.9-9 30.5-.8.1.1.2.2.2.2l.3.3c8.5 8.3 8.6 22 .3 30.5 0 0-.1.1-.1.1-15.2 15.3-38.1 38.4-51.5 51.8-11.9 11.9-23.1 11.8-35-.1-17.3-17.3-34.6-34.7-51.6-51.7-8.1-8.1-8.1-21.2 0-29.3l.3-.3c8.1-8.1 21.2-8.1 29.3 0l.2.2 15.7 16.2 2.1 2s.2-8.5.2-9.8c0-21.8-.1-43.6 0-65.4.2-50.2 36.2-86.9 86.3-87.6 13.7-.2 27.4-.2 41.3-.1 11.7 0 21.2 9.6 21.3 21.3z"/><path d="m297.6 426.5c0-11.8 9.6-21.4 21.4-21.4h2.2c13.2 0 26.5.1 39.7 0 24-.2 42.5-18.2 42.8-42.1s.1-47.5.1-71.3c0-1.1-.1-2.3-.3-4.6l-16.1 16.9c-8.2 8.6-21.8 9-30.5.8-.1-.1-.2-.2-.3-.3l-.3-.3c-8.5-8.3-8.6-22-.3-30.5 0 0 .1-.1.1-.1 15.2-15.3 38.1-38.4 51.5-51.7 11.9-11.8 23.1-11.8 35 .1 17.3 17.3 34.6 34.7 51.6 51.7 8.1 8.1 8.1 21.2 0 29.3l-.3.3c-8.1 8.1-21.2 8.1-29.3 0-.1-.1-.1-.1-.2-.2l-15.7-16.2-2.1-2.1s-.2 8.5-.2 9.8c0 21.8.1 43.6 0 65.4-.2 50.2-36.2 86.9-86.3 87.6-13.7.2-27.4.2-41.4.1-11.6.2-21.1-9.4-21.1-21.2z"/></g></g></svg>